<?xml version="1.0" encoding="UTF-8"?>
<!DOCTYPE svg PUBLIC "-//W3C//DTD SVG 1.1//EN" "http://www.w3.org/Graphics/SVG/1.1/DTD/svg11.dtd">
<svg xmlns="http://www.w3.org/2000/svg" version="1.1" width="500px" height="500px" style="shape-rendering:geometricPrecision; text-rendering:geometricPrecision; image-rendering:optimizeQuality; fill-rule:evenodd; clip-rule:evenodd" xmlns:xlink="http://www.w3.org/1999/xlink">
<g><path style="opacity:0.004" fill="#fefffe" d="M 361.5,3.5 C 362.833,4.16667 362.833,4.16667 361.5,3.5 Z"/></g>
<g><path style="opacity:0.004" fill="#fefffe" d="M 224.5,5.5 C 225.833,6.16667 225.833,6.16667 224.5,5.5 Z"/></g>
<g><path style="opacity:0.004" fill="#fefffe" d="M 234.5,6.5 C 235.833,7.16667 235.833,7.16667 234.5,6.5 Z"/></g>
<g><path style="opacity:0.004" fill="#fefffe" d="M 469.5,13.5 C 470.833,14.1667 470.833,14.1667 469.5,13.5 Z"/></g>
<g><path style="opacity:0.004" fill="#fefffe" d="M 439.5,19.5 C 440.833,20.1667 440.833,20.1667 439.5,19.5 Z"/></g>
<g><path style="opacity:0.004" fill="#fefffe" d="M 317.5,20.5 C 318.833,21.1667 318.833,21.1667 317.5,20.5 Z"/></g>
<g><path style="opacity:0.004" fill="#fefffe" d="M 485.5,23.5 C 486.833,24.1667 486.833,24.1667 485.5,23.5 Z"/></g>
<g><path style="opacity:0.004" fill="#fefffe" d="M 434.5,25.5 C 435.833,26.1667 435.833,26.1667 434.5,25.5 Z"/></g>
<g><path style="opacity:0.004" fill="#fefffe" d="M 34.5,41.5 C 35.8333,42.1667 35.8333,42.1667 34.5,41.5 Z"/></g>
<g><path style="opacity:0.004" fill="#fefffe" d="M 23.5,45.5 C 24.8333,46.1667 24.8333,46.1667 23.5,45.5 Z"/></g>
<g><path style="opacity:0.004" fill="#fefffe" d="M 11.5,49.5 C 12.8333,50.1667 12.8333,50.1667 11.5,49.5 Z"/></g>
<g><path style="opacity:0.004" fill="#fefffe" d="M 292.5,50.5 C 293.833,51.1667 293.833,51.1667 292.5,50.5 Z"/></g>
<g><path style="opacity:0.004" fill="#fefffe" d="M 76.5,51.5 C 77.8333,52.1667 77.8333,52.1667 76.5,51.5 Z"/></g>
<g><path style="opacity:0.004" fill="#fefffe" d="M 330.5,58.5 C 331.833,59.1667 331.833,59.1667 330.5,58.5 Z"/></g>
<g><path style="opacity:0.004" fill="#fefffe" d="M 24.5,64.5 C 25.8333,65.1667 25.8333,65.1667 24.5,64.5 Z"/></g>
<g><path style="opacity:0.004" fill="#fefffe" d="M 127.5,67.5 C 128.833,68.1667 128.833,68.1667 127.5,67.5 Z"/></g>
<g><path style="opacity:0.004" fill="#fefffe" d="M 307.5,67.5 C 308.833,68.1667 308.833,68.1667 307.5,67.5 Z"/></g>
<g><path style="opacity:0.004" fill="#fefffe" d="M 345.5,76.5 C 346.833,77.1667 346.833,77.1667 345.5,76.5 Z"/></g>
<g><path style="opacity:0.004" fill="#fefffe" d="M 197.5,79.5 C 198.833,80.1667 198.833,80.1667 197.5,79.5 Z"/></g>
<g><path style="opacity:0.004" fill="#fefffe" d="M 269.5,82.5 C 270.833,83.1667 270.833,83.1667 269.5,82.5 Z"/></g>
<g><path style="opacity:0.004" fill="#fefffe" d="M 14.5,86.5 C 15.8333,87.1667 15.8333,87.1667 14.5,86.5 Z"/></g>
<g><path style="opacity:0.004" fill="#fefffe" d="M 464.5,88.5 C 465.833,89.1667 465.833,89.1667 464.5,88.5 Z"/></g>
<g><path style="opacity:0.004" fill="#fefffe" d="M 224.5,92.5 C 225.833,93.1667 225.833,93.1667 224.5,92.5 Z"/></g>
<g><path style="opacity:0.004" fill="#fefffe" d="M 379.5,93.5 C 380.833,94.1667 380.833,94.1667 379.5,93.5 Z"/></g>
<g><path style="opacity:0.004" fill="#fefffe" d="M 64.5,94.5 C 65.8333,95.1667 65.8333,95.1667 64.5,94.5 Z"/></g>
<g><path style="opacity:0.004" fill="#fefffe" d="M 102.5,94.5 C 103.833,95.1667 103.833,95.1667 102.5,94.5 Z"/></g>
<g><path style="opacity:0.004" fill="#fefffe" d="M 396.5,94.5 C 397.833,95.1667 397.833,95.1667 396.5,94.5 Z"/></g>
<g><path style="opacity:0.004" fill="#fefffe" d="M 196.5,95.5 C 197.833,96.1667 197.833,96.1667 196.5,95.5 Z"/></g>
<g><path style="opacity:0.004" fill="#fefffe" d="M 169.5,97.5 C 170.833,98.1667 170.833,98.1667 169.5,97.5 Z"/></g>
<g><path style="opacity:0.004" fill="#fefffe" d="M 467.5,97.5 C 468.833,98.1667 468.833,98.1667 467.5,97.5 Z"/></g>
<g><path style="opacity:0.004" fill="#fefffe" d="M 469.5,98.5 C 470.833,99.1667 470.833,99.1667 469.5,98.5 Z"/></g>
<g><path style="opacity:0.004" fill="#fefffe" d="M 466.5,99.5 C 467.833,100.167 467.833,100.167 466.5,99.5 Z"/></g>
<g><path style="opacity:0.004" fill="#fefffe" d="M 40.5,101.5 C 41.8333,102.167 41.8333,102.167 40.5,101.5 Z"/></g>
<g><path style="opacity:0.004" fill="#fefffe" d="M 89.5,106.5 C 90.8333,107.167 90.8333,107.167 89.5,106.5 Z"/></g>
<g><path style="opacity:0.004" fill="#fefffe" d="M 242.5,106.5 C 243.833,107.167 243.833,107.167 242.5,106.5 Z"/></g>
<g><path style="opacity:0.004" fill="#fefffe" d="M 357.5,112.5 C 358.833,113.167 358.833,113.167 357.5,112.5 Z"/></g>
<g><path style="opacity:0.004" fill="#fefffe" d="M 322.5,115.5 C 323.833,116.167 323.833,116.167 322.5,115.5 Z"/></g>
<g><path style="opacity:0.004" fill="#fefffe" d="M 492.5,122.5 C 493.833,123.167 493.833,123.167 492.5,122.5 Z"/></g>
<g><path style="opacity:0.004" fill="#fefffe" d="M 100.5,123.5 C 101.833,124.167 101.833,124.167 100.5,123.5 Z"/></g>
<g><path style="opacity:0.004" fill="#fefffe" d="M 115.5,136.5 C 116.833,137.167 116.833,137.167 115.5,136.5 Z"/></g>
<g><path style="opacity:0.004" fill="#fefffe" d="M 80.5,149.5 C 81.8333,150.167 81.8333,150.167 80.5,149.5 Z"/></g>
<g><path style="opacity:0.004" fill="#fefffe" d="M 76.5,155.5 C 77.8333,156.167 77.8333,156.167 76.5,155.5 Z"/></g>
<g><path style="opacity:0.004" fill="#fefffe" d="M 141.5,159.5 C 142.833,160.167 142.833,160.167 141.5,159.5 Z"/></g>
<g><path style="opacity:0.004" fill="#fefffe" d="M 201.5,160.5 C 202.833,161.167 202.833,161.167 201.5,160.5 Z"/></g>
<g><path style="opacity:0.004" fill="#fefffe" d="M 47.5,172.5 C 48.8333,173.167 48.8333,173.167 47.5,172.5 Z"/></g>
<g><path style="opacity:0.004" fill="#000000" d="M 294.5,173.5 C 295.833,174.167 295.833,174.167 294.5,173.5 Z"/></g>
<g><path style="opacity:0.004" fill="#fefffe" d="M 357.5,175.5 C 358.833,176.167 358.833,176.167 357.5,175.5 Z"/></g>
<g><path style="opacity:0.004" fill="#fefffe" d="M 469.5,181.5 C 470.833,182.167 470.833,182.167 469.5,181.5 Z"/></g>
<g><path style="opacity:0.004" fill="#fefffe" d="M 426.5,186.5 C 427.833,187.167 427.833,187.167 426.5,186.5 Z"/></g>
<g><path style="opacity:0.004" fill="#fefffe" d="M 422.5,188.5 C 423.833,189.167 423.833,189.167 422.5,188.5 Z"/></g>
<g><path style="opacity:0.004" fill="#fefffe" d="M 205.5,189.5 C 206.833,190.167 206.833,190.167 205.5,189.5 Z"/></g>
<g><path style="opacity:0.004" fill="#fefffe" d="M 144.5,193.5 C 145.833,194.167 145.833,194.167 144.5,193.5 Z"/></g>
<g><path style="opacity:0.004" fill="#fefffe" d="M 435.5,196.5 C 436.833,197.167 436.833,197.167 435.5,196.5 Z"/></g>
<g><path style="opacity:0.004" fill="#fefffe" d="M 450.5,201.5 C 451.833,202.167 451.833,202.167 450.5,201.5 Z"/></g>
<g><path style="opacity:0.004" fill="#fefffe" d="M 320.5,208.5 C 321.833,209.167 321.833,209.167 320.5,208.5 Z"/></g>
<g><path style="opacity:0.004" fill="#fefffe" d="M 469.5,211.5 C 470.833,212.167 470.833,212.167 469.5,211.5 Z"/></g>
<g><path style="opacity:0.004" fill="#fefffe" d="M 46.5,215.5 C 47.8333,216.167 47.8333,216.167 46.5,215.5 Z"/></g>
<g><path style="opacity:0.004" fill="#fefffe" d="M 51.5,215.5 C 52.8333,216.167 52.8333,216.167 51.5,215.5 Z"/></g>
<g><path style="opacity:0.004" fill="#fefffe" d="M 288.5,218.5 C 289.833,219.167 289.833,219.167 288.5,218.5 Z"/></g>
<g><path style="opacity:0.004" fill="#fefffe" d="M 56.5,225.5 C 57.8333,226.167 57.8333,226.167 56.5,225.5 Z"/></g>
<g><path style="opacity:0.004" fill="#fefffe" d="M 120.5,229.5 C 121.833,230.167 121.833,230.167 120.5,229.5 Z"/></g>
<g><path style="opacity:0.004" fill="#fefffe" d="M 428.5,230.5 C 429.833,231.167 429.833,231.167 428.5,230.5 Z"/></g>
<g><path style="opacity:0.996" fill="#212121" d="M 305.5,347.5 C 305.821,349.048 306.821,349.715 308.5,349.5C 310.755,350.215 312.588,351.548 314,353.5C 314.784,356.76 314.617,359.927 313.5,363C 265.517,364.6 217.517,364.934 169.5,364C 168.211,360.598 167.544,356.931 167.5,353C 167.512,349.098 168.179,345.598 169.5,342.5C 175.097,342.23 180.43,341.23 185.5,339.5C 188.678,337.991 192.011,336.658 195.5,335.5C 197.027,335.573 198.027,334.906 198.5,333.5C 200.027,333.573 201.027,332.906 201.5,331.5C 206.201,326.764 208.035,321.097 207,314.5C 205.624,313.295 204.458,311.962 203.5,310.5C 203.027,309.094 202.027,308.427 200.5,308.5C 198.37,306.873 196.37,305.04 194.5,303C 174.034,296.773 155.701,286.939 139.5,273.5C 139.027,272.094 138.027,271.427 136.5,271.5C 134.413,270.415 133.08,268.749 132.5,266.5C 132.027,265.094 131.027,264.427 129.5,264.5C 127.273,262.393 125.273,260.06 123.5,257.5C 123.446,255.368 122.446,254.035 120.5,253.5C 119.699,251.958 119.366,250.292 119.5,248.5C 159.166,247.859 198.832,247.193 238.5,246.5C 273.43,249.171 307.763,245.838 341.5,236.5C 348.121,238.56 354.287,241.56 360,245.5C 360.499,249.821 360.666,254.154 360.5,258.5C 337.523,263.822 317.523,274.655 300.5,291C 287.017,304.829 284.851,320.329 294,337.5C 297.41,341.416 301.243,344.749 305.5,347.5 Z M 295.5,348.5 C 295.973,349.906 296.973,350.573 298.5,350.5C 300.978,352.803 303.645,354.969 306.5,357C 262.501,357.5 218.501,357.667 174.5,357.5C 174.5,354.5 174.5,351.5 174.5,348.5C 185.243,346.954 195.243,343.454 204.5,338C 213.722,330.212 216.222,320.712 212,309.5C 210.549,307.536 208.716,306.203 206.5,305.5C 206.5,304.167 205.833,303.5 204.5,303.5C 203.5,301.833 202.167,300.5 200.5,299.5C 200.5,284.5 200.5,269.5 200.5,254.5C 226.339,254.831 252.005,254.498 277.5,253.5C 298.855,252.996 319.855,249.996 340.5,244.5C 344.968,247.137 349.302,249.97 353.5,253C 332.019,259.91 312.685,270.743 295.5,285.5C 279.983,302.02 277.483,320.354 288,340.5C 290,343.666 292.5,346.332 295.5,348.5 Z M 133.5,254.5 C 153.5,254.5 173.5,254.5 193.5,254.5C 193.829,268.01 193.496,281.344 192.5,294.5C 172.343,288.095 154.343,278.095 138.5,264.5C 138.5,263.167 137.833,262.5 136.5,262.5C 136.167,261.5 135.5,260.833 134.5,260.5C 134.5,258.5 133.5,257.5 131.5,257.5C 131.5,257.167 131.5,256.833 131.5,256.5C 132.167,255.833 132.833,255.167 133.5,254.5 Z"/></g>
<g><path style="opacity:0.004" fill="#fefffe" d="M 100.5,249.5 C 101.833,250.167 101.833,250.167 100.5,249.5 Z"/></g>
<g><path style="opacity:0.871" fill="#949494" d="M 120.5,253.5 C 122.446,254.035 123.446,255.368 123.5,257.5C 122.026,256.564 121.026,255.23 120.5,253.5 Z"/></g>
<g><path style="opacity:0.033" fill="#f7f7f7" d="M 133.5,254.5 C 132.833,255.167 132.167,255.833 131.5,256.5C 130.711,256.217 130.044,255.717 129.5,255C 130.793,254.51 132.127,254.343 133.5,254.5 Z"/></g>
<g><path style="opacity:0.012" fill="#bdbdbd" d="M 131.5,257.5 C 133.5,257.5 134.5,258.5 134.5,260.5C 133.167,259.833 132.167,258.833 131.5,257.5 Z"/></g>
<g><path style="opacity:0.702" fill="#696969" d="M 144.5,259.5 C 146.473,258.837 148.639,258.504 151,258.5C 153.61,258.533 155.777,259.2 157.5,260.5C 153.265,259.564 148.931,259.231 144.5,259.5 Z"/></g>
<g><path style="opacity:1" fill="#2f2f2f" d="M 144.5,259.5 C 148.931,259.231 153.265,259.564 157.5,260.5C 157.586,261.496 157.252,262.329 156.5,263C 152.5,263.667 148.5,263.667 144.5,263C 143.209,261.708 143.209,260.542 144.5,259.5 Z"/></g>
<g><path style="opacity:0.999" fill="#373737" d="M 168.5,258.5 C 174.842,258.334 181.175,258.5 187.5,259C 188.38,260.356 188.714,261.856 188.5,263.5C 181.487,264.733 174.487,264.733 167.5,263.5C 167.366,261.708 167.699,260.042 168.5,258.5 Z"/></g>
<g><path style="opacity:0.766" fill="#515151" d="M 208.5,261.5 C 231.661,260.502 254.994,260.169 278.5,260.5C 278.784,262.415 278.451,264.081 277.5,265.5C 277.5,264.167 277.5,262.833 277.5,261.5C 254.5,261.5 231.5,261.5 208.5,261.5 Z"/></g>
<g><path style="opacity:1" fill="#1c1c1c" d="M 208.5,261.5 C 231.5,261.5 254.5,261.5 277.5,261.5C 277.5,262.833 277.5,264.167 277.5,265.5C 272.19,266.99 266.857,266.657 261.5,264.5C 243.942,266.443 226.276,267.11 208.5,266.5C 208.5,264.833 208.5,263.167 208.5,261.5 Z"/></g>
<g><path style="opacity:0.008" fill="#c4c4c4" d="M 136.5,262.5 C 137.833,262.5 138.5,263.167 138.5,264.5C 137.5,264.167 136.833,263.5 136.5,262.5 Z"/></g>
<g><path style="opacity:0.999" fill="#2e2e2e" d="M 284.5,278.5 C 286.749,277.92 288.415,276.587 289.5,274.5C 296.514,267.825 304.847,263.491 314.5,261.5C 314.703,263.39 314.037,264.89 312.5,266C 300.701,272.148 290.535,280.314 282,290.5C 275.119,304.569 273.619,319.236 277.5,334.5C 273.422,334.74 271.256,332.74 271,328.5C 266.483,309.221 270.983,292.554 284.5,278.5 Z"/></g>
<g><path style="opacity:0.753" fill="#828282" d="M 129.5,264.5 C 131.027,264.427 132.027,265.094 132.5,266.5C 130.973,266.573 129.973,265.906 129.5,264.5 Z"/></g>
<g><path style="opacity:0.616" fill="#a4a4a4" d="M 136.5,271.5 C 138.027,271.427 139.027,272.094 139.5,273.5C 137.973,273.573 136.973,272.906 136.5,271.5 Z"/></g>
<g><path style="opacity:0.004" fill="#fefffe" d="M 11.5,272.5 C 12.8333,273.167 12.8333,273.167 11.5,272.5 Z"/></g>
<g><path style="opacity:0.219" fill="#a9a9a9" d="M 193.5,254.5 C 194.826,268.006 194.826,281.672 193.5,295.5C 192.893,295.376 192.56,295.043 192.5,294.5C 193.496,281.344 193.829,268.01 193.5,254.5 Z"/></g>
<g><path style="opacity:0.82" fill="#737373" d="M 289.5,274.5 C 288.415,276.587 286.749,277.92 284.5,278.5C 285.585,276.413 287.251,275.08 289.5,274.5 Z"/></g>
<g><path style="opacity:0.741" fill="#787878" d="M 277.5,253.5 C 252.005,254.498 226.339,254.831 200.5,254.5C 200.5,269.5 200.5,284.5 200.5,299.5C 199.504,284.342 199.17,269.009 199.5,253.5C 225.5,253.5 251.5,253.5 277.5,253.5 Z"/></g>
<g><path style="opacity:0.004" fill="#fefffe" d="M 322.5,292.5 C 323.833,293.167 323.833,293.167 322.5,292.5 Z"/></g>
<g><path style="opacity:0.004" fill="#fefffe" d="M 404.5,302.5 C 405.833,303.167 405.833,303.167 404.5,302.5 Z"/></g>
<g><path style="opacity:0.004" fill="#c7c7c7" d="M 204.5,303.5 C 205.833,303.5 206.5,304.167 206.5,305.5C 205.5,305.167 204.833,304.5 204.5,303.5 Z"/></g>
<g><path style="opacity:0.655" fill="#9a9a9a" d="M 200.5,308.5 C 202.027,308.427 203.027,309.094 203.5,310.5C 201.973,310.573 200.973,309.906 200.5,308.5 Z"/></g>
<g><path style="opacity:0.004" fill="#fefffe" d="M 471.5,315.5 C 472.833,316.167 472.833,316.167 471.5,315.5 Z"/></g>
<g><path style="opacity:0.004" fill="#fefffe" d="M 324.5,321.5 C 325.833,322.167 325.833,322.167 324.5,321.5 Z"/></g>
<g><path style="opacity:0.004" fill="#fefffe" d="M 356.5,325.5 C 357.833,326.167 357.833,326.167 356.5,325.5 Z"/></g>
<g><path style="opacity:0.004" fill="#fefffe" d="M 70.5,329.5 C 71.8333,330.167 71.8333,330.167 70.5,329.5 Z"/></g>
<g><path style="opacity:0.69" fill="#888888" d="M 201.5,331.5 C 201.027,332.906 200.027,333.573 198.5,333.5C 198.973,332.094 199.973,331.427 201.5,331.5 Z"/></g>
<g><path style="opacity:0.729" fill="#8f8f8f" d="M 198.5,333.5 C 198.027,334.906 197.027,335.573 195.5,335.5C 195.973,334.094 196.973,333.427 198.5,333.5 Z"/></g>
<g><path style="opacity:0.957" fill="#5e5e5e" d="M 185.5,339.5 C 180.43,341.23 175.097,342.23 169.5,342.5C 174.57,340.77 179.903,339.77 185.5,339.5 Z"/></g>
<g><path style="opacity:0.004" fill="#fefffe" d="M 70.5,343.5 C 71.8333,344.167 71.8333,344.167 70.5,343.5 Z"/></g>
<g><path style="opacity:0.004" fill="#fefffe" d="M 90.5,343.5 C 91.8333,344.167 91.8333,344.167 90.5,343.5 Z"/></g>
<g><path style="opacity:0.804" fill="#969696" d="M 305.5,347.5 C 306.71,347.932 307.71,348.599 308.5,349.5C 306.821,349.715 305.821,349.048 305.5,347.5 Z"/></g>
<g><path style="opacity:0.529" fill="#8d8d8d" d="M 295.5,348.5 C 297.027,348.427 298.027,349.094 298.5,350.5C 296.973,350.573 295.973,349.906 295.5,348.5 Z"/></g>
<g><path style="opacity:0.004" fill="#fefffe" d="M 424.5,353.5 C 425.833,354.167 425.833,354.167 424.5,353.5 Z"/></g>
<g><path style="opacity:0.004" fill="#fefffe" d="M 126.5,356.5 C 127.833,357.167 127.833,357.167 126.5,356.5 Z"/></g>
<g><path style="opacity:0.004" fill="#fefffe" d="M 280.5,375.5 C 281.833,376.167 281.833,376.167 280.5,375.5 Z"/></g>
<g><path style="opacity:0.004" fill="#fefffe" d="M 286.5,375.5 C 287.833,376.167 287.833,376.167 286.5,375.5 Z"/></g>
<g><path style="opacity:0.004" fill="#fefffe" d="M 345.5,378.5 C 346.833,379.167 346.833,379.167 345.5,378.5 Z"/></g>
<g><path style="opacity:0.004" fill="#fefffe" d="M 31.5,391.5 C 32.8333,392.167 32.8333,392.167 31.5,391.5 Z"/></g>
<g><path style="opacity:0.004" fill="#fefffe" d="M 93.5,393.5 C 94.8333,394.167 94.8333,394.167 93.5,393.5 Z"/></g>
<g><path style="opacity:0.004" fill="#fefffe" d="M 449.5,393.5 C 450.833,394.167 450.833,394.167 449.5,393.5 Z"/></g>
<g><path style="opacity:0.004" fill="#fefffe" d="M 268.5,395.5 C 269.833,396.167 269.833,396.167 268.5,395.5 Z"/></g>
<g><path style="opacity:0.004" fill="#fefffe" d="M 40.5,400.5 C 41.8333,401.167 41.8333,401.167 40.5,400.5 Z"/></g>
<g><path style="opacity:0.004" fill="#fefffe" d="M 60.5,405.5 C 61.8333,406.167 61.8333,406.167 60.5,405.5 Z"/></g>
<g><path style="opacity:0.004" fill="#fefffe" d="M 324.5,408.5 C 325.833,409.167 325.833,409.167 324.5,408.5 Z"/></g>
<g><path style="opacity:0.004" fill="#fefffe" d="M 10.5,428.5 C 11.8333,429.167 11.8333,429.167 10.5,428.5 Z"/></g>
<g><path style="opacity:0.004" fill="#fefffe" d="M 69.5,431.5 C 70.8333,432.167 70.8333,432.167 69.5,431.5 Z"/></g>
<g><path style="opacity:0.004" fill="#fefffe" d="M 318.5,433.5 C 319.833,434.167 319.833,434.167 318.5,433.5 Z"/></g>
<g><path style="opacity:0.004" fill="#fefffe" d="M 15.5,445.5 C 16.8333,446.167 16.8333,446.167 15.5,445.5 Z"/></g>
<g><path style="opacity:0.004" fill="#fefffe" d="M 405.5,450.5 C 406.833,451.167 406.833,451.167 405.5,450.5 Z"/></g>
<g><path style="opacity:0.004" fill="#fefffe" d="M 204.5,452.5 C 205.833,453.167 205.833,453.167 204.5,452.5 Z"/></g>
<g><path style="opacity:0.004" fill="#fefffe" d="M 266.5,456.5 C 267.833,457.167 267.833,457.167 266.5,456.5 Z"/></g>
<g><path style="opacity:0.004" fill="#fefffe" d="M 281.5,494.5 C 282.833,495.167 282.833,495.167 281.5,494.5 Z"/></g>
<g><path style="opacity:0.004" fill="#fefffe" d="M 390.5,496.5 C 391.833,497.167 391.833,497.167 390.5,496.5 Z"/></g>
<g><path style="opacity:0.004" fill="#fefffe" d="M 471.5,499.5 C 470.833,498.167 470.833,498.167 471.5,499.5 Z"/></g>
</svg>
