<?xml version="1.0" encoding="UTF-8"?>
<!DOCTYPE svg PUBLIC "-//W3C//DTD SVG 1.1//EN" "http://www.w3.org/Graphics/SVG/1.1/DTD/svg11.dtd">
<svg xmlns="http://www.w3.org/2000/svg" version="1.1" width="500px" height="500px" style="shape-rendering:geometricPrecision; text-rendering:geometricPrecision; image-rendering:optimizeQuality; fill-rule:evenodd; clip-rule:evenodd" xmlns:xlink="http://www.w3.org/1999/xlink">
<g transform="translate(0.000000,1024.000000) scale(0.100000,-0.100000)"> </g>
    <g transform="rotate(90 500 500)"> </g>    
<g><path style="opacity:0.004" fill="#fefffe" d="M 78.5,8.5 C 79.8333,9.16667 79.8333,9.16667 78.5,8.5 Z"/></g>
<g><path style="opacity:0.004" fill="#fefffe" d="M 354.5,9.5 C 355.833,10.1667 355.833,10.1667 354.5,9.5 Z"/></g>
<g><path style="opacity:0.004" fill="#fefffe" d="M 157.5,17.5 C 158.833,18.1667 158.833,18.1667 157.5,17.5 Z"/></g>
<g><path style="opacity:0.004" fill="#fefffe" d="M 175.5,21.5 C 176.833,22.1667 176.833,22.1667 175.5,21.5 Z"/></g>
<g><path style="opacity:0.004" fill="#fefffe" d="M 462.5,25.5 C 463.833,26.1667 463.833,26.1667 462.5,25.5 Z"/></g>
<g><path style="opacity:0.004" fill="#fefffe" d="M 279.5,40.5 C 280.833,41.1667 280.833,41.1667 279.5,40.5 Z"/></g>
<g><path style="opacity:0.004" fill="#fefffe" d="M 175.5,46.5 C 176.833,47.1667 176.833,47.1667 175.5,46.5 Z"/></g>
<g><path style="opacity:0.004" fill="#fefffe" d="M 484.5,55.5 C 485.833,56.1667 485.833,56.1667 484.5,55.5 Z"/></g>
<g><path style="opacity:0.004" fill="#fefffe" d="M 354.5,72.5 C 355.833,73.1667 355.833,73.1667 354.5,72.5 Z"/></g>
<g><path style="opacity:0.004" fill="#fefffe" d="M 425.5,74.5 C 426.833,75.1667 426.833,75.1667 425.5,74.5 Z"/></g>
<g><path style="opacity:0.004" fill="#fefffe" d="M 381.5,78.5 C 382.833,79.1667 382.833,79.1667 381.5,78.5 Z"/></g>
<g><path style="opacity:0.004" fill="#fefffe" d="M 59.5,82.5 C 60.8333,83.1667 60.8333,83.1667 59.5,82.5 Z"/></g>
<g><path style="opacity:0.004" fill="#fefffe" d="M 400.5,89.5 C 401.833,90.1667 401.833,90.1667 400.5,89.5 Z"/></g>
<g><path style="opacity:0.004" fill="#fefffe" d="M 351.5,93.5 C 352.833,94.1667 352.833,94.1667 351.5,93.5 Z"/></g>
<g><path style="opacity:0.004" fill="#fefffe" d="M 483.5,99.5 C 484.833,100.167 484.833,100.167 483.5,99.5 Z"/></g>
<g><path style="opacity:0.004" fill="#fefffe" d="M 155.5,105.5 C 156.833,106.167 156.833,106.167 155.5,105.5 Z"/></g>
<g><path style="opacity:0.004" fill="#fefffe" d="M 354.5,106.5 C 355.833,107.167 355.833,107.167 354.5,106.5 Z"/></g>
<g><path style="opacity:0.004" fill="#fefffe" d="M 457.5,107.5 C 458.833,108.167 458.833,108.167 457.5,107.5 Z"/></g>
<g><path style="opacity:0.004" fill="#fefffe" d="M 425.5,108.5 C 426.833,109.167 426.833,109.167 425.5,108.5 Z"/></g>
<g><path style="opacity:0.004" fill="#fefffe" d="M 300.5,113.5 C 301.833,114.167 301.833,114.167 300.5,113.5 Z"/></g>
<g><path style="opacity:0.004" fill="#fefffe" d="M 69.5,120.5 C 70.8333,121.167 70.8333,121.167 69.5,120.5 Z"/></g>
<g><path style="opacity:0.004" fill="#fefffe" d="M 296.5,122.5 C 297.833,123.167 297.833,123.167 296.5,122.5 Z"/></g>
<g><path style="opacity:0.004" fill="#fefffe" d="M 496.5,123.5 C 497.833,124.167 497.833,124.167 496.5,123.5 Z"/></g>
<g><path style="opacity:0.989" fill="#222222" d="M 322.5,139.5 C 323.301,141.042 323.634,142.708 323.5,144.5C 312.992,146.282 302.992,149.782 293.5,155C 290.952,156.922 288.952,159.255 287.5,162C 291.005,164.675 294.339,167.509 297.5,170.5C 294.552,175.715 294.886,180.548 298.5,185C 320.042,196.271 341.709,207.271 363.5,218C 368.667,221.167 373.833,224.333 379,227.5C 378.083,237.51 374.25,246.343 367.5,254C 364.975,254.896 362.808,254.396 361,252.5C 358.773,254.879 356.273,255.046 353.5,253C 331.19,237.666 307.857,223.999 283.5,212C 274.345,209.909 268.678,213.409 266.5,222.5C 268.707,226.606 269.54,230.939 269,235.5C 266.65,239.359 265.483,243.359 265.5,247.5C 264.5,249.167 263.167,250.5 261.5,251.5C 257.293,251.019 253.293,249.852 249.5,248C 250.167,247.667 250.833,247.333 251.5,247C 240.761,243.867 230.761,239.201 221.5,233C 219.643,231.818 218.643,230.151 218.5,228C 219.79,222.251 221.79,216.751 224.5,211.5C 228.108,210.181 231.775,209.014 235.5,208C 240.624,198.735 237.958,192.735 227.5,190C 226.313,188.981 225.313,187.814 224.5,186.5C 226.727,177.483 229.727,168.816 233.5,160.5C 234.906,160.027 235.573,159.027 235.5,157.5C 237.4,153.268 240.067,149.601 243.5,146.5C 245.167,145.5 246.5,144.167 247.5,142.5C 248.172,141.733 249.005,141.066 250,140.5C 253.108,142.392 256.275,143.059 259.5,142.5C 261.027,142.573 262.027,141.906 262.5,140.5C 282.388,131.535 302.388,131.201 322.5,139.5 Z M 306.5,141.5 C 305.833,142.167 305.167,142.833 304.5,143.5C 298.497,145.001 292.831,147.334 287.5,150.5C 284.569,152.248 281.736,154.248 279,156.5C 278.136,160.034 278.969,163.034 281.5,165.5C 282.189,168.189 283.856,169.856 286.5,170.5C 287.981,173.728 288.981,177.061 289.5,180.5C 289.372,182.655 289.872,184.655 291,186.5C 294.233,189.733 297.4,192.9 300.5,196C 299.352,201.155 296.852,205.321 293,208.5C 284.222,203.503 275.389,203.336 266.5,208C 260.833,213.319 258.999,219.819 261,227.5C 261.781,228.729 262.281,230.062 262.5,231.5C 261.49,234.183 260.49,236.849 259.5,239.5C 257.621,240.341 255.621,240.675 253.5,240.5C 243.357,237.428 234.023,232.762 225.5,226.5C 227.074,223.271 228.741,220.104 230.5,217C 240.836,215.173 245.502,209.007 244.5,198.5C 244.59,195.848 243.924,193.515 242.5,191.5C 241.473,187.554 241.306,183.554 242,179.5C 246.177,168.979 252.01,159.479 259.5,151C 273.889,142.071 289.555,138.904 306.5,141.5 Z M 245.5,155.5 C 246.072,153.745 246.906,152.078 248,150.5C 248.837,148.993 250.004,148.493 251.5,149C 249.6,151.335 247.6,153.502 245.5,155.5 Z M 245.5,155.5 C 245.573,157.027 244.906,158.027 243.5,158.5C 243.427,156.973 244.094,155.973 245.5,155.5 Z M 243.5,158.5 C 243.25,160.674 242.25,162.341 240.5,163.5C 240.75,161.326 241.75,159.659 243.5,158.5 Z M 239.5,165.5 C 239.598,167.553 238.931,169.22 237.5,170.5C 237.402,168.447 238.069,166.78 239.5,165.5 Z M 235.5,175.5 C 235.599,178.673 234.932,181.673 233.5,184.5C 233.167,184.167 232.833,183.833 232.5,183.5C 233.209,180.616 234.209,177.949 235.5,175.5 Z M 307.5,198.5 C 313.172,199.836 318.505,202.003 323.5,205C 339.135,213.485 354.802,221.985 370.5,230.5C 370.928,236.027 369.261,241.027 365.5,245.5C 364.277,246.614 362.944,246.781 361.5,246C 342.167,235.667 322.833,225.333 303.5,215C 302.426,214.261 301.759,213.261 301.5,212C 303.103,207.297 305.103,202.797 307.5,198.5 Z"/></g>
<g><path style="opacity:0.004" fill="#fefffe" d="M 107.5,140.5 C 108.833,141.167 108.833,141.167 107.5,140.5 Z"/></g>
<g><path style="opacity:0.757" fill="#8e8e8e" d="M 262.5,140.5 C 262.027,141.906 261.027,142.573 259.5,142.5C 259.973,141.094 260.973,140.427 262.5,140.5 Z"/></g>
<g><path style="opacity:0.596" fill="#999999" d="M 322.5,139.5 C 323.649,139.791 324.316,140.624 324.5,142C 324.472,143.07 324.139,143.903 323.5,144.5C 323.634,142.708 323.301,141.042 322.5,139.5 Z"/></g>
<g><path style="opacity:0.369" fill="#a7a7a7" d="M 306.5,141.5 C 307.239,141.369 307.906,141.536 308.5,142C 307.437,143.188 306.103,143.688 304.5,143.5C 305.167,142.833 305.833,142.167 306.5,141.5 Z"/></g>
<g><path style="opacity:0.612" fill="#949494" d="M 247.5,142.5 C 246.5,144.167 245.167,145.5 243.5,146.5C 243.833,144.167 245.167,142.833 247.5,142.5 Z"/></g>
<g><path style="opacity:0.004" fill="#fefffe" d="M 325.5,156.5 C 326.833,157.167 326.833,157.167 325.5,156.5 Z"/></g>
<g><path style="opacity:0.004" fill="#fefffe" d="M 405.5,157.5 C 406.833,158.167 406.833,158.167 405.5,157.5 Z"/></g>
<g><path style="opacity:0.004" fill="#fefffe" d="M 119.5,158.5 C 120.833,159.167 120.833,159.167 119.5,158.5 Z"/></g>
<g><path style="opacity:0.318" fill="#a8a8a8" d="M 235.5,157.5 C 235.573,159.027 234.906,160.027 233.5,160.5C 233.427,158.973 234.094,157.973 235.5,157.5 Z"/></g>
<g><path style="opacity:0.004" fill="#fefffe" d="M 425.5,162.5 C 426.833,163.167 426.833,163.167 425.5,162.5 Z"/></g>
<g><path style="opacity:0.976" fill="#7e7e7e" d="M 281.5,165.5 C 283.452,166.785 285.118,168.451 286.5,170.5C 283.856,169.856 282.189,168.189 281.5,165.5 Z"/></g>
<g><path style="opacity:0.004" fill="#fefffe" d="M 113.5,172.5 C 114.833,173.167 114.833,173.167 113.5,172.5 Z"/></g>
<g><path style="opacity:0.004" fill="#fefffe" d="M 14.5,175.5 C 15.8333,176.167 15.8333,176.167 14.5,175.5 Z"/></g>
<g><path style="opacity:0.125" fill="#c5c5c5" d="M 286.5,170.5 C 287.496,170.414 288.329,170.748 289,171.5C 289.498,174.482 289.665,177.482 289.5,180.5C 288.981,177.061 287.981,173.728 286.5,170.5 Z"/></g>
<g><path style="opacity:0.004" fill="#fefffe" d="M 35.5,179.5 C 36.8333,180.167 36.8333,180.167 35.5,179.5 Z"/></g>
<g><path style="opacity:0.725" fill="#717171" d="M 242.5,191.5 C 243.924,193.515 244.59,195.848 244.5,198.5C 243.076,196.485 242.41,194.152 242.5,191.5 Z"/></g>
<g><path style="opacity:0.004" fill="#fefffe" d="M 71.5,214.5 C 72.8333,215.167 72.8333,215.167 71.5,214.5 Z"/></g>
<g><path style="opacity:0.004" fill="#fefffe" d="M 209.5,214.5 C 210.833,215.167 210.833,215.167 209.5,214.5 Z"/></g>
<g><path style="opacity:0.004" fill="#fefffe" d="M 493.5,214.5 C 494.833,215.167 494.833,215.167 493.5,214.5 Z"/></g>
<g><path style="opacity:0.004" fill="#fefffe" d="M 99.5,218.5 C 100.833,219.167 100.833,219.167 99.5,218.5 Z"/></g>
<g><path style="opacity:0.004" fill="#fefffe" d="M 460.5,218.5 C 461.833,219.167 461.833,219.167 460.5,218.5 Z"/></g>
<g><path style="opacity:0.004" fill="#fefffe" d="M 287.5,226.5 C 288.833,227.167 288.833,227.167 287.5,226.5 Z"/></g>
<g><path style="opacity:0.004" fill="#fefffe" d="M 128.5,232.5 C 129.833,233.167 129.833,233.167 128.5,232.5 Z"/></g>
<g><path style="opacity:0.004" fill="#fefffe" d="M 300.5,232.5 C 301.833,233.167 301.833,233.167 300.5,232.5 Z"/></g>
<g><path style="opacity:0.004" fill="#fefffe" d="M 117.5,233.5 C 118.833,234.167 118.833,234.167 117.5,233.5 Z"/></g>
<g><path style="opacity:0.043" fill="#b4b4b4" d="M 259.5,239.5 C 259.03,240.693 258.03,241.36 256.5,241.5C 255.274,241.48 254.274,241.147 253.5,240.5C 255.621,240.675 257.621,240.341 259.5,239.5 Z"/></g>
<g><path style="opacity:0.004" fill="#fefffe" d="M 116.5,241.5 C 117.833,242.167 117.833,242.167 116.5,241.5 Z"/></g>
<g><path style="opacity:0.004" fill="#fefffe" d="M 458.5,242.5 C 459.833,243.167 459.833,243.167 458.5,242.5 Z"/></g>
<g><path style="opacity:0.004" fill="#fefffe" d="M 184.5,245.5 C 185.833,246.167 185.833,246.167 184.5,245.5 Z"/></g>
<g><path style="opacity:0.004" fill="#fefffe" d="M 424.5,256.5 C 425.833,257.167 425.833,257.167 424.5,256.5 Z"/></g>
<g><path style="opacity:0.004" fill="#fefffe" d="M 83.5,258.5 C 84.8333,259.167 84.8333,259.167 83.5,258.5 Z"/></g>
<g><path style="opacity:0.004" fill="#fefffe" d="M 138.5,278.5 C 139.833,279.167 139.833,279.167 138.5,278.5 Z"/></g>
<g><path style="opacity:0.004" fill="#fefffe" d="M 60.5,280.5 C 61.8333,281.167 61.8333,281.167 60.5,280.5 Z"/></g>
<g><path style="opacity:0.004" fill="#fefffe" d="M 462.5,286.5 C 463.833,287.167 463.833,287.167 462.5,286.5 Z"/></g>
<g><path style="opacity:0.004" fill="#fefffe" d="M 158.5,287.5 C 159.833,288.167 159.833,288.167 158.5,287.5 Z"/></g>
<g><path style="opacity:0.004" fill="#fefffe" d="M 177.5,287.5 C 178.833,288.167 178.833,288.167 177.5,287.5 Z"/></g>
<g><path style="opacity:0.004" fill="#fefffe" d="M 247.5,289.5 C 248.833,290.167 248.833,290.167 247.5,289.5 Z"/></g>
<g><path style="opacity:0.004" fill="#fefffe" d="M 399.5,294.5 C 400.833,295.167 400.833,295.167 399.5,294.5 Z"/></g>
<g><path style="opacity:0.004" fill="#fefffe" d="M 73.5,300.5 C 74.8333,301.167 74.8333,301.167 73.5,300.5 Z"/></g>
<g><path style="opacity:0.004" fill="#fefffe" d="M 462.5,303.5 C 463.833,304.167 463.833,304.167 462.5,303.5 Z"/></g>
<g><path style="opacity:0.004" fill="#fefffe" d="M 436.5,308.5 C 437.833,309.167 437.833,309.167 436.5,308.5 Z"/></g>
<g><path style="opacity:0.004" fill="#fefffe" d="M 132.5,319.5 C 133.833,320.167 133.833,320.167 132.5,319.5 Z"/></g>
<g><path style="opacity:0.004" fill="#fefffe" d="M 49.5,329.5 C 50.8333,330.167 50.8333,330.167 49.5,329.5 Z"/></g>
<g><path style="opacity:0.004" fill="#fefffe" d="M 148.5,332.5 C 149.833,333.167 149.833,333.167 148.5,332.5 Z"/></g>
<g><path style="opacity:0.004" fill="#fefffe" d="M 182.5,335.5 C 183.833,336.167 183.833,336.167 182.5,335.5 Z"/></g>
<g><path style="opacity:0.004" fill="#fefffe" d="M 103.5,340.5 C 104.833,341.167 104.833,341.167 103.5,340.5 Z"/></g>
<g><path style="opacity:0.004" fill="#fefffe" d="M 365.5,356.5 C 366.833,357.167 366.833,357.167 365.5,356.5 Z"/></g>
<g><path style="opacity:0.004" fill="#000000" d="M 299.5,358.5 C 300.833,359.167 300.833,359.167 299.5,358.5 Z"/></g>
<g><path style="opacity:0.004" fill="#fefffe" d="M 323.5,358.5 C 324.833,359.167 324.833,359.167 323.5,358.5 Z"/></g>
<g><path style="opacity:0.004" fill="#fefffe" d="M 71.5,359.5 C 72.8333,360.167 72.8333,360.167 71.5,359.5 Z"/></g>
<g><path style="opacity:0.004" fill="#fefffe" d="M 444.5,385.5 C 445.833,386.167 445.833,386.167 444.5,385.5 Z"/></g>
<g><path style="opacity:0.004" fill="#fefffe" d="M 410.5,392.5 C 411.833,393.167 411.833,393.167 410.5,392.5 Z"/></g>
<g><path style="opacity:0.004" fill="#fefffe" d="M 435.5,402.5 C 436.833,403.167 436.833,403.167 435.5,402.5 Z"/></g>
<g><path style="opacity:0.004" fill="#fefffe" d="M 234.5,411.5 C 235.833,412.167 235.833,412.167 234.5,411.5 Z"/></g>
<g><path style="opacity:0.004" fill="#fefffe" d="M 438.5,423.5 C 439.833,424.167 439.833,424.167 438.5,423.5 Z"/></g>
<g><path style="opacity:0.004" fill="#fefffe" d="M 143.5,429.5 C 144.833,430.167 144.833,430.167 143.5,429.5 Z"/></g>
<g><path style="opacity:0.004" fill="#fefffe" d="M 269.5,429.5 C 270.833,430.167 270.833,430.167 269.5,429.5 Z"/></g>
<g><path style="opacity:0.004" fill="#fefffe" d="M 48.5,439.5 C 49.8333,440.167 49.8333,440.167 48.5,439.5 Z"/></g>
<g><path style="opacity:0.004" fill="#fefffe" d="M 369.5,442.5 C 370.833,443.167 370.833,443.167 369.5,442.5 Z"/></g>
<g><path style="opacity:0.004" fill="#fefffe" d="M 288.5,444.5 C 289.833,445.167 289.833,445.167 288.5,444.5 Z"/></g>
<g><path style="opacity:0.004" fill="#fefffe" d="M 75.5,454.5 C 76.8333,455.167 76.8333,455.167 75.5,454.5 Z"/></g>
<g><path style="opacity:0.004" fill="#fefffe" d="M 298.5,454.5 C 299.833,455.167 299.833,455.167 298.5,454.5 Z"/></g>
<g><path style="opacity:0.004" fill="#fefffe" d="M 377.5,460.5 C 378.833,461.167 378.833,461.167 377.5,460.5 Z"/></g>
<g><path style="opacity:0.004" fill="#fefffe" d="M 455.5,463.5 C 456.833,464.167 456.833,464.167 455.5,463.5 Z"/></g>
<g><path style="opacity:0.004" fill="#fefffe" d="M 434.5,470.5 C 435.833,471.167 435.833,471.167 434.5,470.5 Z"/></g>
<g><path style="opacity:0.004" fill="#fefffe" d="M 438.5,479.5 C 439.833,480.167 439.833,480.167 438.5,479.5 Z"/></g>
<g><path style="opacity:0.004" fill="#fefffe" d="M 302.5,484.5 C 303.833,485.167 303.833,485.167 302.5,484.5 Z"/></g>
<g><path style="opacity:0.004" fill="#fefffe" d="M 305.5,485.5 C 306.833,486.167 306.833,486.167 305.5,485.5 Z"/></g>
<g><path style="opacity:0.004" fill="#fefffe" d="M 417.5,486.5 C 418.833,487.167 418.833,487.167 417.5,486.5 Z"/></g>
<g><path style="opacity:0.004" fill="#fefffe" d="M 482.5,491.5 C 483.833,492.167 483.833,492.167 482.5,491.5 Z"/></g>
</svg>
